<svg width="86" height="58" viewBox="0 0 86 58" fill="none" xmlns="http://www.w3.org/2000/svg">
<g clip-path="url(#clip0_9_8)">
<path d="M3.53113 39.9929H81.4695" stroke="white" stroke-width="4" stroke-miterlimit="10" stroke-linecap="round" stroke-linejoin="round"/>
<mask id="mask0_9_8" style="mask-type:luminance" maskUnits="userSpaceOnUse" x="-127" y="-90" width="345" height="244">
<path d="M218 -90H-127V154H218V-90Z" fill="white"/>
</mask>
<g mask="url(#mask0_9_8)">
<path d="M21.3202 5.41855C21.3202 5.41855 8.3339 11.6571 6.44885 26.9255" stroke="white" stroke-width="4" stroke-miterlimit="10" stroke-linecap="round" stroke-linejoin="round"/>
</g>
<mask id="mask1_9_8" style="mask-type:luminance" maskUnits="userSpaceOnUse" x="-127" y="-90" width="345" height="244">
<path d="M218 -90H-127V154H218V-90Z" fill="white"/>
</mask>
<g mask="url(#mask1_9_8)">
<path d="M61.906 5.52921C61.906 5.52921 74.8923 11.7677 76.7774 27.0362" stroke="white" stroke-width="4" stroke-miterlimit="10" stroke-linecap="round" stroke-linejoin="round"/>
</g>
<mask id="mask2_9_8" style="mask-type:luminance" maskUnits="userSpaceOnUse" x="-127" y="-90" width="345" height="244">
<path d="M218 -90H-127V154H218V-90Z" fill="white"/>
</mask>
<g mask="url(#mask2_9_8)">
<path d="M34.1467 29.0816H18.5746V16.4077C18.5746 15.3871 19.4024 14.5632 20.4186 14.5632H62.4797C63.5001 14.5632 64.3238 15.3871 64.3238 16.4077V29.0816H53.4971V20.0148C53.4971 19.4081 53.0053 18.9163 52.3988 18.9163H35.2449C34.6384 18.9163 34.1508 19.4081 34.1508 20.0107V24.9458H22.2668V26.0566H34.1508V29.0816H34.1467Z" fill="white"/>
</g>
<mask id="mask3_9_8" style="mask-type:luminance" maskUnits="userSpaceOnUse" x="-127" y="-90" width="345" height="244">
<path d="M218 -90H-127V154H218V-90Z" fill="white"/>
</mask>
<g mask="url(#mask3_9_8)">
<path d="M18.5746 30.258L34.1467 30.3768V33.4961H18.5746V30.258Z" fill="white"/>
</g>
<mask id="mask4_9_8" style="mask-type:luminance" maskUnits="userSpaceOnUse" x="-127" y="-90" width="345" height="244">
<path d="M218 -90H-127V154H218V-90Z" fill="white"/>
</mask>
<g mask="url(#mask4_9_8)">
<path d="M34.1467 34.5168L18.5746 34.3979L17.7919 38.2263H34.1467V34.5168Z" fill="white"/>
</g>
<mask id="mask5_9_8" style="mask-type:luminance" maskUnits="userSpaceOnUse" x="-127" y="-90" width="345" height="244">
<path d="M218 -90H-127V154H218V-90Z" fill="white"/>
</mask>
<g mask="url(#mask5_9_8)">
<path d="M35.3023 21.8224V38.2262H46.0389H46.2069L46.1946 34.0945H48.8746V32.2377L49.9319 32.2623L50.5343 34.0822H52.3251V21.8265H35.3023V21.8224ZM42.4696 25.8639H38.175V24.708H42.4696V25.8639Z" fill="white"/>
</g>
<mask id="mask6_9_8" style="mask-type:luminance" maskUnits="userSpaceOnUse" x="-127" y="-90" width="345" height="244">
<path d="M218 -90H-127V154H218V-90Z" fill="white"/>
</mask>
<g mask="url(#mask6_9_8)">
<path d="M53.4561 34.0085V30.299H64.3238V33.5166H58.5375L58.0458 32.3402H56.5746L56.3779 34.0085H53.4561Z" fill="white"/>
</g>
<mask id="mask7_9_8" style="mask-type:luminance" maskUnits="userSpaceOnUse" x="-127" y="-90" width="345" height="244">
<path d="M218 -90H-127V154H218V-90Z" fill="white"/>
</mask>
<g mask="url(#mask7_9_8)">
<path d="M64.2623 34.4594H59.8898L59.9595 38.1197H65.2048L64.2623 34.4594Z" fill="white"/>
</g>
<mask id="mask8_9_8" style="mask-type:luminance" maskUnits="userSpaceOnUse" x="-127" y="-90" width="345" height="244">
<path d="M218 -90H-127V154H218V-90Z" fill="white"/>
</mask>
<g mask="url(#mask8_9_8)">
<path d="M35.6178 6.94745C35.6178 6.94745 29.221 8.93542 26.291 13.4237H29.9668C29.9668 13.4237 31.8109 9.32892 35.6178 6.94745Z" fill="white"/>
</g>
<mask id="mask9_9_8" style="mask-type:luminance" maskUnits="userSpaceOnUse" x="-127" y="-90" width="345" height="244">
<path d="M218 -90H-127V154H218V-90Z" fill="white"/>
</mask>
<g mask="url(#mask9_9_8)">
<path d="M39.5478 6.43918C39.5478 6.43918 33.9951 7.54999 31.0938 13.4237H37.1546C37.1546 13.4237 37.7529 10.3126 39.5478 6.43918Z" fill="white"/>
</g>
<mask id="mask10_9_8" style="mask-type:luminance" maskUnits="userSpaceOnUse" x="-127" y="-90" width="345" height="244">
<path d="M218 -90H-127V154H218V-90Z" fill="white"/>
</mask>
<g mask="url(#mask10_9_8)">
<path d="M40.0641 7.81232C40.0641 7.81232 38.2487 12.6695 38.2282 13.4237H42.9162C42.9162 13.4237 42.572 9.71421 42.0721 8.33287C42.0721 8.33287 42.1417 9.24693 42.0311 9.53795C42.0393 9.53795 40.6747 7.99677 40.0641 7.81232Z" fill="white"/>
</g>
<mask id="mask11_9_8" style="mask-type:luminance" maskUnits="userSpaceOnUse" x="-127" y="-90" width="345" height="244">
<path d="M218 -90H-127V154H218V-90Z" fill="white"/>
</mask>
<g mask="url(#mask11_9_8)">
<path d="M42.6663 6.43918C42.6663 6.43918 44.1456 12.6408 43.8834 13.4237H45.6619C45.6619 13.4237 45.6865 11.4726 45.752 11.489C45.8176 11.5013 46.4323 11.5669 46.4323 11.5669C46.4323 11.5669 47.7518 13.0589 47.9362 13.4237H50.5507C50.5507 13.4237 46.9814 7.54998 42.6663 6.43918Z" fill="white"/>
</g>
<mask id="mask12_9_8" style="mask-type:luminance" maskUnits="userSpaceOnUse" x="-127" y="-90" width="345" height="244">
<path d="M218 -90H-127V154H218V-90Z" fill="white"/>
</mask>
<g mask="url(#mask12_9_8)">
<path d="M45.8708 6.79169C45.8708 6.79169 52.825 8.31239 56.3369 13.4237L53.3455 13.4647C53.3455 13.4647 52.3046 12.3744 51.1039 12.7597C51.1039 12.7556 49.3951 9.78799 45.8708 6.79169Z" fill="white"/>
</g>
<mask id="mask13_9_8" style="mask-type:luminance" maskUnits="userSpaceOnUse" x="-127" y="-90" width="345" height="244">
<path d="M218 -90H-127V154H218V-90Z" fill="white"/>
</mask>
<g mask="url(#mask13_9_8)">
<path d="M3.61719 54.5686C3.2033 54.4825 2.8181 54.3554 2.45338 54.1874C2.09277 54.0193 1.76493 53.8185 1.48218 53.5807L2.27307 52.1748C2.6214 52.4617 3.02299 52.6831 3.47786 52.8347C3.93273 52.9905 4.39989 53.0684 4.88345 53.0684C5.43667 53.0684 5.87106 52.9741 6.1743 52.7856C6.48165 52.597 6.63327 52.3306 6.63327 51.9863V51.9781C6.63327 51.7362 6.5636 51.5477 6.42837 51.4083C6.29314 51.2689 6.11283 51.1624 5.89564 51.0968C5.67435 51.0312 5.39569 50.9697 5.05146 50.9165C5.03917 50.9124 5.02688 50.9082 5.01869 50.9082C5.00639 50.9082 4.99819 50.9042 4.9859 50.9001L4.85067 50.8796C4.24418 50.7853 3.74423 50.6664 3.34673 50.5229C2.94923 50.3795 2.6132 50.1295 2.33454 49.7687C2.05588 49.408 1.91656 48.8998 1.91656 48.244V48.2399C1.91656 47.6537 2.04769 47.1577 2.30995 46.7437C2.57222 46.3298 2.94923 46.0141 3.44918 45.7969C3.94502 45.5797 4.54743 45.469 5.25227 45.469C5.57601 45.469 5.90793 45.5059 6.24396 45.5797C6.57999 45.6534 6.91193 45.76 7.23566 45.9035C7.5594 46.0428 7.86674 46.215 8.15359 46.4117L7.43236 47.8546C7.08403 47.6127 6.71933 47.4283 6.34232 47.2971C5.96121 47.1659 5.60059 47.0963 5.25227 47.0963C4.73184 47.0963 4.32613 47.1823 4.03928 47.3545C3.75242 47.5267 3.609 47.7685 3.609 48.08V48.0841C3.609 48.3464 3.68276 48.5514 3.83438 48.703C3.98191 48.8547 4.16632 48.9654 4.3876 49.0351C4.60889 49.1047 4.91624 49.1785 5.31374 49.2605C5.33013 49.2646 5.34652 49.2687 5.36291 49.2687C5.3793 49.2687 5.39569 49.2728 5.41208 49.2769C5.43667 49.281 5.46126 49.2851 5.48175 49.2933C5.50634 49.3015 5.52682 49.3056 5.55141 49.3097C6.12102 49.4203 6.60048 49.5556 6.98568 49.7155C7.36679 49.8753 7.69053 50.1336 7.9446 50.4861C8.20277 50.8386 8.3298 51.3263 8.3298 51.9371V51.9494C8.3298 52.5232 8.19457 53.0192 7.92411 53.4291C7.65365 53.839 7.26025 54.1505 6.74801 54.3677C6.23167 54.585 5.61288 54.6915 4.88755 54.6915C4.44907 54.6997 4.02698 54.6547 3.61719 54.5686Z" fill="white"/>
</g>
<mask id="mask14_9_8" style="mask-type:luminance" maskUnits="userSpaceOnUse" x="-127" y="-90" width="345" height="244">
<path d="M218 -90H-127V154H218V-90Z" fill="white"/>
</mask>
<g mask="url(#mask14_9_8)">
<path d="M8.63306 45.5674H15.2594V47.2069H8.63306V45.5674ZM11.0959 46.3052H12.8006V54.6055H11.0959V46.3052Z" fill="white"/>
</g>
<mask id="mask15_9_8" style="mask-type:luminance" maskUnits="userSpaceOnUse" x="-127" y="-90" width="345" height="244">
<path d="M218 -90H-127V154H218V-90Z" fill="white"/>
</mask>
<g mask="url(#mask15_9_8)">
<path d="M17.3903 54.3022C16.8986 54.0398 16.5215 53.6545 16.2634 53.1504C16.0052 52.6462 15.8782 52.0396 15.8782 51.3305V45.5633H17.5829V51.3755C17.5829 51.892 17.7222 52.2937 18.0009 52.5806C18.2796 52.8676 18.6689 53.011 19.177 53.011C19.6851 53.011 20.0826 52.8676 20.3613 52.5806C20.64 52.2937 20.7793 51.892 20.7793 51.3755V45.5633H22.4799V51.3305C22.4799 52.0396 22.3488 52.6462 22.0906 53.1504C21.8325 53.6545 21.4554 54.0357 20.9596 54.3022C20.4637 54.5645 19.8696 54.6957 19.1729 54.6957C18.4804 54.6998 17.8862 54.5686 17.3903 54.3022Z" fill="white"/>
</g>
<mask id="mask16_9_8" style="mask-type:luminance" maskUnits="userSpaceOnUse" x="-127" y="-90" width="345" height="244">
<path d="M218 -90H-127V154H218V-90Z" fill="white"/>
</mask>
<g mask="url(#mask16_9_8)">
<path d="M24.2216 45.5674H25.9222V54.6055H24.2216V45.5674ZM25.078 52.9659H27.2458C27.8031 52.9659 28.2375 52.8307 28.5449 52.5642C28.8522 52.2937 29.0038 51.9125 29.0038 51.4206V48.7604C29.0038 48.2686 28.8481 47.8874 28.5449 47.6168C28.2375 47.3463 27.8072 47.2111 27.2458 47.2111H25.078V45.5715H27.2089C27.963 45.5715 28.6063 45.6985 29.1391 45.9527C29.6718 46.2068 30.0775 46.5757 30.3521 47.0594C30.6307 47.5431 30.77 48.1292 30.77 48.8137V51.3755C30.77 52.0273 30.6348 52.5929 30.3684 53.0766C30.1021 53.5603 29.7005 53.9374 29.1678 54.2079C28.635 54.4784 27.9794 54.6096 27.2048 54.6096H25.078V52.9659Z" fill="white"/>
</g>
<mask id="mask17_9_8" style="mask-type:luminance" maskUnits="userSpaceOnUse" x="-127" y="-90" width="345" height="244">
<path d="M218 -90H-127V154H218V-90Z" fill="white"/>
</mask>
<g mask="url(#mask17_9_8)">
<path d="M35.6342 51.1173V54.6055H33.9295V51.1173L31.27 45.5674H33.0526L34.7819 49.4573L36.5071 45.5674H38.2938L35.6342 51.1173Z" fill="white"/>
</g>
<mask id="mask18_9_8" style="mask-type:luminance" maskUnits="userSpaceOnUse" x="-127" y="-90" width="345" height="244">
<path d="M218 -90H-127V154H218V-90Z" fill="white"/>
</mask>
<g mask="url(#mask18_9_8)">
<path d="M41.0025 45.5674H42.0844L45.5389 54.6055H43.7072L41.5434 48.4325L39.3797 54.6055H37.548L41.0025 45.5674ZM39.2076 51.5149H43.9612V53.1545H39.2076V51.5149Z" fill="white"/>
</g>
<mask id="mask19_9_8" style="mask-type:luminance" maskUnits="userSpaceOnUse" x="-127" y="-90" width="345" height="244">
<path d="M218 -90H-127V154H218V-90Z" fill="white"/>
</mask>
<g mask="url(#mask19_9_8)">
<path d="M46.2479 45.5674H47.9485V54.6055H46.2479V45.5674ZM46.9937 52.9659H49.8786C50.2679 52.9659 50.5712 52.8716 50.7843 52.6831C50.9974 52.4945 51.1039 52.2281 51.1039 51.892V51.8715C51.1039 51.642 51.0547 51.4493 50.9605 51.2854C50.8662 51.1255 50.7269 50.9984 50.5425 50.9165C50.3581 50.8304 50.1368 50.7894 49.8827 50.7894H46.9978V49.1498H49.8827C50.2352 49.1498 50.5056 49.0597 50.6982 48.8834C50.8908 48.7071 50.9892 48.453 50.9892 48.1333C50.9892 47.8423 50.8908 47.6168 50.6982 47.457C50.5056 47.293 50.2311 47.2152 49.8827 47.2152H46.9978V45.5756H49.936C50.522 45.5756 51.0179 45.674 51.4317 45.8666C51.8456 46.0593 52.1612 46.338 52.3784 46.7069C52.5915 47.0758 52.7021 47.5144 52.7021 48.0267C52.7021 48.3792 52.6324 48.6908 52.4931 48.9613C52.3538 49.2318 52.153 49.4573 51.8866 49.6294C51.6202 49.8057 51.3006 49.9204 50.9277 49.9819C51.3252 50.0352 51.6653 50.1582 51.9481 50.3467C52.2308 50.5353 52.448 50.7812 52.5956 51.0845C52.7431 51.3878 52.8168 51.7363 52.8168 52.1338V52.1543C52.8168 52.6708 52.7062 53.1176 52.489 53.4865C52.2718 53.8554 51.9563 54.1341 51.5383 54.3268C51.1203 54.5194 50.6203 54.6178 50.0384 54.6178H46.9937V52.9659Z" fill="white"/>
</g>
<mask id="mask20_9_8" style="mask-type:luminance" maskUnits="userSpaceOnUse" x="-127" y="-90" width="345" height="244">
<path d="M218 -90H-127V154H218V-90Z" fill="white"/>
</mask>
<g mask="url(#mask20_9_8)">
<path d="M57.3328 45.5674H59.0334V54.6055H57.3328V45.5674ZM58.0909 52.9659H63.3854V54.6055H58.0909V52.9659Z" fill="white"/>
</g>
<mask id="mask21_9_8" style="mask-type:luminance" maskUnits="userSpaceOnUse" x="-127" y="-90" width="345" height="244">
<path d="M218 -90H-127V154H218V-90Z" fill="white"/>
</mask>
<g mask="url(#mask21_9_8)">
<path d="M66.2703 45.5674H64.5041V54.6055H66.2703V45.5674Z" fill="white"/>
</g>
<mask id="mask22_9_8" style="mask-type:luminance" maskUnits="userSpaceOnUse" x="-127" y="-90" width="345" height="244">
<path d="M218 -90H-127V154H218V-90Z" fill="white"/>
</mask>
<g mask="url(#mask22_9_8)">
<path d="M67.7988 45.5674H74.4252V47.2069H67.7988V45.5674ZM70.2576 46.3052H71.9582V54.6055H70.2576V46.3052Z" fill="white"/>
</g>
<mask id="mask23_9_8" style="mask-type:luminance" maskUnits="userSpaceOnUse" x="-127" y="-90" width="345" height="244">
<path d="M218 -90H-127V154H218V-90Z" fill="white"/>
</mask>
<g mask="url(#mask23_9_8)">
<path d="M79.3837 51.1173V54.6055H77.6789V51.1173L75.0194 45.5674H76.802L78.5313 49.4573L80.2606 45.5674H82.0432L79.3837 51.1173Z" fill="white"/>
</g>
<mask id="mask24_9_8" style="mask-type:luminance" maskUnits="userSpaceOnUse" x="-127" y="-90" width="345" height="244">
<path d="M218 -90H-127V154H218V-90Z" fill="white"/>
</mask>
<g mask="url(#mask24_9_8)">
<path d="M55.6772 45.4854H53.9109V54.5235H55.6772V45.4854Z" fill="white"/>
</g>
</g>
<defs>
<clipPath id="clip0_9_8">
<rect width="345" height="244" fill="white" transform="translate(-127 -90)"/>
</clipPath>
</defs>
</svg>
